<svg xmlns="http://www.w3.org/2000/svg" width="1012" height="662" viewBox="0 0 1012 662">
<title>Herdr Sidebar Customizer settings with synthetic projects</title>
<rect width="1012" height="662" rx="12" fill="#f7f8fa"/>
<g font-family="DejaVu Sans Mono,Menlo,monospace" font-size="14">
<text x="20" y="22" fill="#242936" font-weight="bold">H</text>
<text x="29" y="22" fill="#242936" font-weight="bold">E</text>
<text x="38" y="22" fill="#242936" font-weight="bold">R</text>
<text x="47" y="22" fill="#242936" font-weight="bold">D</text>
<text x="56" y="22" fill="#242936" font-weight="bold">R</text>
<text x="74" y="22" fill="#242936" font-weight="bold">S</text>
<text x="83" y="22" fill="#242936" font-weight="bold">I</text>
<text x="92" y="22" fill="#242936" font-weight="bold">D</text>
<text x="101" y="22" fill="#242936" font-weight="bold">E</text>
<text x="110" y="22" fill="#242936" font-weight="bold">B</text>
<text x="119" y="22" fill="#242936" font-weight="bold">A</text>
<text x="128" y="22" fill="#242936" font-weight="bold">R</text>
<text x="146" y="22" fill="#242936" font-weight="bold">C</text>
<text x="155" y="22" fill="#242936" font-weight="bold">U</text>
<text x="164" y="22" fill="#242936" font-weight="bold">S</text>
<text x="173" y="22" fill="#242936" font-weight="bold">T</text>
<text x="182" y="22" fill="#242936" font-weight="bold">O</text>
<text x="191" y="22" fill="#242936" font-weight="bold">M</text>
<text x="200" y="22" fill="#242936" font-weight="bold">I</text>
<text x="209" y="22" fill="#242936" font-weight="bold">Z</text>
<text x="218" y="22" fill="#242936" font-weight="bold">E</text>
<text x="227" y="22" fill="#242936" font-weight="bold">R</text>
<text x="254" y="22" fill="#242936">S</text>
<text x="263" y="22" fill="#242936">a</text>
<text x="272" y="22" fill="#242936">v</text>
<text x="281" y="22" fill="#242936">e</text>
<text x="290" y="22" fill="#242936">d</text>
<text x="29" y="40" fill="#242936">1</text>
<text x="47" y="40" fill="#242936">S</text>
<text x="56" y="40" fill="#242936">p</text>
<text x="65" y="40" fill="#242936">a</text>
<text x="74" y="40" fill="#242936">c</text>
<text x="83" y="40" fill="#242936">e</text>
<text x="92" y="40" fill="#242936">s</text>
<text x="119" y="40" fill="#242936">2</text>
<text x="137" y="40" fill="#242936">A</text>
<text x="146" y="40" fill="#242936">g</text>
<text x="155" y="40" fill="#242936">e</text>
<text x="164" y="40" fill="#242936">n</text>
<text x="173" y="40" fill="#242936">t</text>
<text x="182" y="40" fill="#242936">s</text>
<text x="209" y="40" fill="#242936">3</text>
<text x="227" y="40" fill="#242936">T</text>
<text x="236" y="40" fill="#242936">a</text>
<text x="245" y="40" fill="#242936">b</text>
<text x="254" y="40" fill="#242936">s</text>
<text x="281" y="40" fill="#242936">4</text>
<text x="299" y="40" fill="#242936">C</text>
<text x="308" y="40" fill="#242936">o</text>
<text x="317" y="40" fill="#242936">l</text>
<text x="326" y="40" fill="#242936">o</text>
<text x="335" y="40" fill="#242936">r</text>
<text x="344" y="40" fill="#242936">s</text>
<rect x="362" y="26" width="9" height="18" fill="#242936"/>
<rect x="371" y="26" width="9" height="18" fill="#242936"/>
<text x="371" y="40" fill="#f7f8fa">5</text>
<rect x="380" y="26" width="9" height="18" fill="#242936"/>
<rect x="389" y="26" width="9" height="18" fill="#242936"/>
<text x="389" y="40" fill="#f7f8fa">M</text>
<rect x="398" y="26" width="9" height="18" fill="#242936"/>
<text x="398" y="40" fill="#f7f8fa">o</text>
<rect x="407" y="26" width="9" height="18" fill="#242936"/>
<text x="407" y="40" fill="#f7f8fa">t</text>
<rect x="416" y="26" width="9" height="18" fill="#242936"/>
<text x="416" y="40" fill="#f7f8fa">i</text>
<rect x="425" y="26" width="9" height="18" fill="#242936"/>
<text x="425" y="40" fill="#f7f8fa">o</text>
<rect x="434" y="26" width="9" height="18" fill="#242936"/>
<text x="434" y="40" fill="#f7f8fa">n</text>
<rect x="443" y="26" width="9" height="18" fill="#242936"/>
<rect x="452" y="26" width="9" height="18" fill="#242936"/>
<text x="452" y="40" fill="#f7f8fa">&amp;</text>
<rect x="461" y="26" width="9" height="18" fill="#242936"/>
<rect x="470" y="26" width="9" height="18" fill="#242936"/>
<text x="470" y="40" fill="#f7f8fa">s</text>
<rect x="479" y="26" width="9" height="18" fill="#242936"/>
<text x="479" y="40" fill="#f7f8fa">y</text>
<rect x="488" y="26" width="9" height="18" fill="#242936"/>
<text x="488" y="40" fill="#f7f8fa">m</text>
<rect x="497" y="26" width="9" height="18" fill="#242936"/>
<text x="497" y="40" fill="#f7f8fa">b</text>
<rect x="506" y="26" width="9" height="18" fill="#242936"/>
<text x="506" y="40" fill="#f7f8fa">o</text>
<rect x="515" y="26" width="9" height="18" fill="#242936"/>
<text x="515" y="40" fill="#f7f8fa">l</text>
<rect x="524" y="26" width="9" height="18" fill="#242936"/>
<text x="524" y="40" fill="#f7f8fa">s</text>
<rect x="533" y="26" width="9" height="18" fill="#242936"/>
<text x="551" y="40" fill="#242936">6</text>
<text x="569" y="40" fill="#242936">S</text>
<text x="578" y="40" fill="#242936">h</text>
<text x="587" y="40" fill="#242936">o</text>
<text x="596" y="40" fill="#242936">r</text>
<text x="605" y="40" fill="#242936">t</text>
<text x="614" y="40" fill="#242936">c</text>
<text x="623" y="40" fill="#242936">u</text>
<text x="632" y="40" fill="#242936">t</text>
<text x="641" y="40" fill="#242936">s</text>
<text x="29" y="76" fill="#242936" font-weight="bold">S</text>
<text x="38" y="76" fill="#242936" font-weight="bold">P</text>
<text x="47" y="76" fill="#242936" font-weight="bold">A</text>
<text x="56" y="76" fill="#242936" font-weight="bold">C</text>
<text x="65" y="76" fill="#242936" font-weight="bold">E</text>
<text x="74" y="76" fill="#242936" font-weight="bold">S</text>
<text x="101" y="76" fill="#242936">s</text>
<text x="110" y="76" fill="#242936">a</text>
<text x="119" y="76" fill="#242936">m</text>
<text x="128" y="76" fill="#242936">p</text>
<text x="137" y="76" fill="#242936">l</text>
<text x="146" y="76" fill="#242936">e</text>
<text x="155" y="76" fill="#242936">s</text>
<text x="173" y="76" fill="#242936" font-family="DejaVu Sans,Noto Sans Symbols 2,monospace">·</text>
<text x="191" y="76" fill="#242936">t</text>
<text x="200" y="76" fill="#242936">h</text>
<text x="209" y="76" fill="#242936">e</text>
<text x="227" y="76" fill="#242936">f</text>
<text x="236" y="76" fill="#242936">i</text>
<text x="245" y="76" fill="#242936">r</text>
<text x="254" y="76" fill="#242936">s</text>
<text x="263" y="76" fill="#242936">t</text>
<text x="281" y="76" fill="#242936">h</text>
<text x="290" y="76" fill="#242936">a</text>
<text x="299" y="76" fill="#242936">s</text>
<text x="317" y="76" fill="#242936">n</text>
<text x="326" y="76" fill="#242936">o</text>
<text x="344" y="76" fill="#242936">G</text>
<text x="353" y="76" fill="#242936">i</text>
<text x="362" y="76" fill="#242936">t</text>
<text x="380" y="76" fill="#242936">r</text>
<text x="389" y="76" fill="#242936">e</text>
<text x="398" y="76" fill="#242936">p</text>
<text x="407" y="76" fill="#242936">o</text>
<text x="29" y="94" fill="#5fafff" font-weight="bold" font-family="DejaVu Sans,Noto Sans Symbols 2,monospace">⠇</text>
<text x="47" y="94" fill="#5fafff" font-weight="bold">W</text>
<text x="56" y="94" fill="#5fafff" font-weight="bold">e</text>
<text x="65" y="94" fill="#5fafff" font-weight="bold">b</text>
<text x="74" y="94" fill="#5fafff" font-weight="bold">s</text>
<text x="83" y="94" fill="#5fafff" font-weight="bold">i</text>
<text x="92" y="94" fill="#5fafff" font-weight="bold">t</text>
<text x="101" y="94" fill="#5fafff" font-weight="bold">e</text>
<text x="29" y="130" fill="#5fffd7" font-weight="bold" font-family="DejaVu Sans,Noto Sans Symbols 2,monospace">●</text>
<text x="47" y="130" fill="#5fffd7" font-weight="bold">S</text>
<text x="56" y="130" fill="#5fffd7" font-weight="bold">a</text>
<text x="65" y="130" fill="#5fffd7" font-weight="bold">n</text>
<text x="74" y="130" fill="#5fffd7" font-weight="bold">d</text>
<text x="83" y="130" fill="#5fffd7" font-weight="bold">b</text>
<text x="92" y="130" fill="#5fffd7" font-weight="bold">o</text>
<text x="101" y="130" fill="#5fffd7" font-weight="bold">x</text>
<text x="29" y="148" fill="#afff87" font-family="DejaVu Sans,Noto Sans Symbols 2,monospace">↑</text>
<text x="38" y="148" fill="#afff87">1</text>
<text x="56" y="148" fill="#afff87" font-family="DejaVu Sans,Noto Sans Symbols 2,monospace">↓</text>
<text x="65" y="148" fill="#afff87">2</text>
<text x="83" y="148" fill="#242936" font-family="DejaVu Sans,Noto Sans Symbols 2,monospace">·</text>
<text x="101" y="148" fill="#242936">f</text>
<text x="110" y="148" fill="#242936">e</text>
<text x="119" y="148" fill="#242936">a</text>
<text x="128" y="148" fill="#242936">t</text>
<text x="137" y="148" fill="#242936">u</text>
<text x="146" y="148" fill="#242936">r</text>
<text x="155" y="148" fill="#242936">e</text>
<text x="164" y="148" fill="#242936">/</text>
<text x="173" y="148" fill="#242936">u</text>
<text x="182" y="148" fill="#242936">i</text>
<text x="29" y="184" fill="#242936" font-weight="bold">A</text>
<text x="38" y="184" fill="#242936" font-weight="bold">G</text>
<text x="47" y="184" fill="#242936" font-weight="bold">E</text>
<text x="56" y="184" fill="#242936" font-weight="bold">N</text>
<text x="65" y="184" fill="#242936" font-weight="bold">T</text>
<text x="74" y="184" fill="#242936" font-weight="bold">S</text>
<text x="29" y="202" fill="#5fafff" font-weight="bold" font-family="DejaVu Sans,Noto Sans Symbols 2,monospace">⠇</text>
<text x="47" y="202" fill="#5fafff" font-weight="bold">W</text>
<text x="56" y="202" fill="#5fafff" font-weight="bold">e</text>
<text x="65" y="202" fill="#5fafff" font-weight="bold">b</text>
<text x="74" y="202" fill="#5fafff" font-weight="bold">s</text>
<text x="83" y="202" fill="#5fafff" font-weight="bold">i</text>
<text x="92" y="202" fill="#5fafff" font-weight="bold">t</text>
<text x="101" y="202" fill="#5fafff" font-weight="bold">e</text>
<text x="119" y="202" fill="#242936" font-family="DejaVu Sans,Noto Sans Symbols 2,monospace">·</text>
<text x="137" y="202" fill="#242936">e</text>
<text x="146" y="202" fill="#242936">d</text>
<text x="155" y="202" fill="#242936">i</text>
<text x="164" y="202" fill="#242936">t</text>
<text x="173" y="202" fill="#242936">o</text>
<text x="182" y="202" fill="#242936">r</text>
<text x="29" y="220" fill="#242936">C</text>
<text x="38" y="220" fill="#242936">l</text>
<text x="47" y="220" fill="#242936">a</text>
<text x="56" y="220" fill="#242936">u</text>
<text x="65" y="220" fill="#242936">d</text>
<text x="74" y="220" fill="#242936">e</text>
<text x="92" y="220" fill="#242936">O</text>
<text x="101" y="220" fill="#242936">p</text>
<text x="110" y="220" fill="#242936">u</text>
<text x="119" y="220" fill="#242936">s</text>
<text x="137" y="220" fill="#242936">5</text>
<text x="155" y="220" fill="#242936" font-family="DejaVu Sans,Noto Sans Symbols 2,monospace">·</text>
<text x="173" y="220" fill="#242936">m</text>
<text x="182" y="220" fill="#242936">e</text>
<text x="191" y="220" fill="#242936">d</text>
<text x="200" y="220" fill="#242936">i</text>
<text x="209" y="220" fill="#242936">u</text>
<text x="218" y="220" fill="#242936">m</text>
<text x="236" y="220" fill="#242936" font-family="DejaVu Sans,Noto Sans Symbols 2,monospace">·</text>
<text x="254" y="220" fill="#242936">2</text>
<text x="263" y="220" fill="#242936">5</text>
<text x="272" y="220" fill="#242936">%</text>
<text x="281" y="220" fill="#242936">/</text>
<text x="290" y="220" fill="#242936">1</text>
<text x="299" y="220" fill="#242936">M</text>
<text x="29" y="238" fill="#5fffd7" font-weight="bold" font-family="DejaVu Sans,Noto Sans Symbols 2,monospace">●</text>
<text x="47" y="238" fill="#5fffd7" font-weight="bold">S</text>
<text x="56" y="238" fill="#5fffd7" font-weight="bold">a</text>
<text x="65" y="238" fill="#5fffd7" font-weight="bold">n</text>
<text x="74" y="238" fill="#5fffd7" font-weight="bold">d</text>
<text x="83" y="238" fill="#5fffd7" font-weight="bold">b</text>
<text x="92" y="238" fill="#5fffd7" font-weight="bold">o</text>
<text x="101" y="238" fill="#5fffd7" font-weight="bold">x</text>
<text x="119" y="238" fill="#242936" font-weight="bold" font-family="DejaVu Sans,Noto Sans Symbols 2,monospace">·</text>
<text x="137" y="238" fill="#242936" font-weight="bold">B</text>
<text x="146" y="238" fill="#242936" font-weight="bold">u</text>
<text x="155" y="238" fill="#242936" font-weight="bold">i</text>
<text x="164" y="238" fill="#242936" font-weight="bold">l</text>
<text x="173" y="238" fill="#242936" font-weight="bold">d</text>
<text x="191" y="238" fill="#242936" font-weight="bold">b</text>
<text x="200" y="238" fill="#242936" font-weight="bold">o</text>
<text x="209" y="238" fill="#242936" font-weight="bold">x</text>
<text x="227" y="238" fill="#242936" font-family="DejaVu Sans,Noto Sans Symbols 2,monospace">·</text>
<text x="245" y="238" fill="#242936">t</text>
<text x="254" y="238" fill="#242936">e</text>
<text x="263" y="238" fill="#242936">s</text>
<text x="272" y="238" fill="#242936">t</text>
<text x="281" y="238" fill="#242936">s</text>
<text x="29" y="256" fill="#242936">C</text>
<text x="38" y="256" fill="#242936">o</text>
<text x="47" y="256" fill="#242936">d</text>
<text x="56" y="256" fill="#242936">e</text>
<text x="65" y="256" fill="#242936">x</text>
<text x="83" y="256" fill="#242936">G</text>
<text x="92" y="256" fill="#242936">P</text>
<text x="101" y="256" fill="#242936">T</text>
<text x="110" y="256" fill="#242936">-</text>
<text x="119" y="256" fill="#242936">6</text>
<text x="137" y="256" fill="#242936">A</text>
<text x="146" y="256" fill="#242936">s</text>
<text x="155" y="256" fill="#242936">t</text>
<text x="164" y="256" fill="#242936">r</text>
<text x="173" y="256" fill="#242936">a</text>
<text x="191" y="256" fill="#242936" font-family="DejaVu Sans,Noto Sans Symbols 2,monospace">·</text>
<text x="209" y="256" fill="#242936">m</text>
<text x="218" y="256" fill="#242936">e</text>
<text x="227" y="256" fill="#242936">d</text>
<text x="236" y="256" fill="#242936">i</text>
<text x="245" y="256" fill="#242936">u</text>
<text x="254" y="256" fill="#242936">m</text>
<text x="272" y="256" fill="#242936" font-family="DejaVu Sans,Noto Sans Symbols 2,monospace">·</text>
<text x="290" y="256" fill="#242936">2</text>
<text x="299" y="256" fill="#242936">5</text>
<text x="308" y="256" fill="#242936">%</text>
<text x="317" y="256" fill="#242936">/</text>
<text x="326" y="256" fill="#242936">1</text>
<text x="335" y="256" fill="#242936">M</text>
<text x="20" y="328" fill="#242936" font-weight="bold">M</text>
<text x="29" y="328" fill="#242936" font-weight="bold">O</text>
<text x="38" y="328" fill="#242936" font-weight="bold">T</text>
<text x="47" y="328" fill="#242936" font-weight="bold">I</text>
<text x="56" y="328" fill="#242936" font-weight="bold">O</text>
<text x="65" y="328" fill="#242936" font-weight="bold">N</text>
<text x="38" y="346" fill="#242936">A</text>
<text x="47" y="346" fill="#242936">n</text>
<text x="56" y="346" fill="#242936">i</text>
<text x="65" y="346" fill="#242936">m</text>
<text x="74" y="346" fill="#242936">a</text>
<text x="83" y="346" fill="#242936">t</text>
<text x="92" y="346" fill="#242936">e</text>
<text x="110" y="346" fill="#242936">w</text>
<text x="119" y="346" fill="#242936">o</text>
<text x="128" y="346" fill="#242936">r</text>
<text x="137" y="346" fill="#242936">k</text>
<text x="146" y="346" fill="#242936">i</text>
<text x="155" y="346" fill="#242936">n</text>
<text x="164" y="346" fill="#242936">g</text>
<text x="182" y="346" fill="#242936">a</text>
<text x="191" y="346" fill="#242936">g</text>
<text x="200" y="346" fill="#242936">e</text>
<text x="209" y="346" fill="#242936">n</text>
<text x="218" y="346" fill="#242936">t</text>
<text x="227" y="346" fill="#242936">s</text>
<text x="254" y="346" fill="#242936">O</text>
<text x="263" y="346" fill="#242936">n</text>
<rect x="20" y="350" width="9" height="18" fill="#242936"/>
<text x="20" y="364" fill="#f7f8fa">&gt;</text>
<rect x="29" y="350" width="9" height="18" fill="#242936"/>
<rect x="38" y="350" width="9" height="18" fill="#242936"/>
<text x="38" y="364" fill="#f7f8fa">A</text>
<rect x="47" y="350" width="9" height="18" fill="#242936"/>
<text x="47" y="364" fill="#f7f8fa">n</text>
<rect x="56" y="350" width="9" height="18" fill="#242936"/>
<text x="56" y="364" fill="#f7f8fa">i</text>
<rect x="65" y="350" width="9" height="18" fill="#242936"/>
<text x="65" y="364" fill="#f7f8fa">m</text>
<rect x="74" y="350" width="9" height="18" fill="#242936"/>
<text x="74" y="364" fill="#f7f8fa">a</text>
<rect x="83" y="350" width="9" height="18" fill="#242936"/>
<text x="83" y="364" fill="#f7f8fa">t</text>
<rect x="92" y="350" width="9" height="18" fill="#242936"/>
<text x="92" y="364" fill="#f7f8fa">i</text>
<rect x="101" y="350" width="9" height="18" fill="#242936"/>
<text x="101" y="364" fill="#f7f8fa">o</text>
<rect x="110" y="350" width="9" height="18" fill="#242936"/>
<text x="110" y="364" fill="#f7f8fa">n</text>
<rect x="254" y="350" width="9" height="18" fill="#242936"/>
<text x="254" y="364" fill="#f7f8fa">B</text>
<rect x="263" y="350" width="9" height="18" fill="#242936"/>
<text x="263" y="364" fill="#f7f8fa">r</text>
<rect x="272" y="350" width="9" height="18" fill="#242936"/>
<text x="272" y="364" fill="#f7f8fa">a</text>
<rect x="281" y="350" width="9" height="18" fill="#242936"/>
<text x="281" y="364" fill="#f7f8fa">i</text>
<rect x="290" y="350" width="9" height="18" fill="#242936"/>
<text x="290" y="364" fill="#f7f8fa">l</text>
<rect x="299" y="350" width="9" height="18" fill="#242936"/>
<text x="299" y="364" fill="#f7f8fa">l</text>
<rect x="308" y="350" width="9" height="18" fill="#242936"/>
<text x="308" y="364" fill="#f7f8fa">e</text>
<text x="56" y="382" fill="#242936">L</text>
<text x="65" y="382" fill="#242936">e</text>
<text x="74" y="382" fill="#242936">f</text>
<text x="83" y="382" fill="#242936">t</text>
<text x="92" y="382" fill="#242936">/</text>
<text x="101" y="382" fill="#242936">R</text>
<text x="110" y="382" fill="#242936">i</text>
<text x="119" y="382" fill="#242936">g</text>
<text x="128" y="382" fill="#242936">h</text>
<text x="137" y="382" fill="#242936">t</text>
<text x="155" y="382" fill="#242936">s</text>
<text x="164" y="382" fill="#242936">e</text>
<text x="173" y="382" fill="#242936">l</text>
<text x="182" y="382" fill="#242936">e</text>
<text x="191" y="382" fill="#242936">c</text>
<text x="200" y="382" fill="#242936">t</text>
<text x="209" y="382" fill="#242936">s</text>
<text x="227" y="382" fill="#242936">a</text>
<text x="236" y="382" fill="#242936">n</text>
<text x="254" y="382" fill="#242936">a</text>
<text x="263" y="382" fill="#242936">n</text>
<text x="272" y="382" fill="#242936">i</text>
<text x="281" y="382" fill="#242936">m</text>
<text x="290" y="382" fill="#242936">a</text>
<text x="299" y="382" fill="#242936">t</text>
<text x="308" y="382" fill="#242936">i</text>
<text x="317" y="382" fill="#242936">o</text>
<text x="326" y="382" fill="#242936">n</text>
<text x="335" y="382" fill="#242936">;</text>
<text x="353" y="382" fill="#242936">c</text>
<text x="362" y="382" fill="#242936">l</text>
<text x="371" y="382" fill="#242936">i</text>
<text x="380" y="382" fill="#242936">c</text>
<text x="389" y="382" fill="#242936">k</text>
<text x="407" y="382" fill="#242936">a</text>
<text x="416" y="382" fill="#242936">n</text>
<text x="425" y="382" fill="#242936">y</text>
<text x="443" y="382" fill="#242936">p</text>
<text x="452" y="382" fill="#242936">r</text>
<text x="461" y="382" fill="#242936">e</text>
<text x="470" y="382" fill="#242936">v</text>
<text x="479" y="382" fill="#242936">i</text>
<text x="488" y="382" fill="#242936">e</text>
<text x="497" y="382" fill="#242936">w</text>
<text x="515" y="382" fill="#242936">t</text>
<text x="524" y="382" fill="#242936">o</text>
<text x="542" y="382" fill="#242936">c</text>
<text x="551" y="382" fill="#242936">h</text>
<text x="560" y="382" fill="#242936">o</text>
<text x="569" y="382" fill="#242936">o</text>
<text x="578" y="382" fill="#242936">s</text>
<text x="587" y="382" fill="#242936">e</text>
<text x="605" y="382" fill="#242936">i</text>
<text x="614" y="382" fill="#242936">t</text>
<text x="623" y="382" fill="#242936">.</text>
<rect x="29" y="386" width="9" height="18" fill="#242936"/>
<text x="29" y="400" fill="#f7f8fa">[</text>
<rect x="38" y="386" width="9" height="18" fill="#242936"/>
<rect x="47" y="386" width="9" height="18" fill="#242936"/>
<text x="47" y="400" fill="#f7f8fa" font-family="DejaVu Sans,Noto Sans Symbols 2,monospace">⠇</text>
<rect x="56" y="386" width="9" height="18" fill="#242936"/>
<rect x="65" y="386" width="9" height="18" fill="#242936"/>
<text x="65" y="400" fill="#f7f8fa">]</text>
<text x="182" y="400" fill="#242936" font-family="DejaVu Sans,Noto Sans Symbols 2,monospace">◑</text>
<text x="317" y="400" fill="#242936" font-family="DejaVu Sans,Noto Sans Symbols 2,monospace">◞</text>
<text x="452" y="400" fill="#242936" font-family="DejaVu Sans,Noto Sans Symbols 2,monospace">∙</text>
<text x="587" y="400" fill="#242936" font-family="DejaVu Sans,Noto Sans Symbols 2,monospace">◎</text>
<text x="722" y="400" fill="#242936" font-family="DejaVu Sans,Noto Sans Symbols 2,monospace">✸</text>
<text x="857" y="400" fill="#242936" font-family="DejaVu Sans,Noto Sans Symbols 2,monospace">▄</text>
<text x="29" y="418" fill="#242936" font-weight="bold">B</text>
<text x="38" y="418" fill="#242936" font-weight="bold">r</text>
<text x="47" y="418" fill="#242936" font-weight="bold">a</text>
<text x="56" y="418" fill="#242936" font-weight="bold">i</text>
<text x="65" y="418" fill="#242936" font-weight="bold">l</text>
<text x="74" y="418" fill="#242936" font-weight="bold">l</text>
<text x="83" y="418" fill="#242936" font-weight="bold">e</text>
<text x="164" y="418" fill="#242936">H</text>
<text x="173" y="418" fill="#242936">a</text>
<text x="182" y="418" fill="#242936">l</text>
<text x="191" y="418" fill="#242936">f</text>
<text x="209" y="418" fill="#242936">m</text>
<text x="218" y="418" fill="#242936">o</text>
<text x="227" y="418" fill="#242936">o</text>
<text x="236" y="418" fill="#242936">n</text>
<text x="299" y="418" fill="#242936">A</text>
<text x="308" y="418" fill="#242936">r</text>
<text x="317" y="418" fill="#242936">c</text>
<text x="434" y="418" fill="#242936">H</text>
<text x="443" y="418" fill="#242936">e</text>
<text x="452" y="418" fill="#242936">a</text>
<text x="461" y="418" fill="#242936">r</text>
<text x="470" y="418" fill="#242936">t</text>
<text x="479" y="418" fill="#242936">b</text>
<text x="488" y="418" fill="#242936">e</text>
<text x="497" y="418" fill="#242936">a</text>
<text x="506" y="418" fill="#242936">t</text>
<text x="569" y="418" fill="#242936">R</text>
<text x="578" y="418" fill="#242936">i</text>
<text x="587" y="418" fill="#242936">n</text>
<text x="596" y="418" fill="#242936">g</text>
<text x="605" y="418" fill="#242936">s</text>
<text x="704" y="418" fill="#242936">S</text>
<text x="713" y="418" fill="#242936">t</text>
<text x="722" y="418" fill="#242936">a</text>
<text x="731" y="418" fill="#242936">r</text>
<text x="740" y="418" fill="#242936">b</text>
<text x="749" y="418" fill="#242936">u</text>
<text x="758" y="418" fill="#242936">r</text>
<text x="767" y="418" fill="#242936">s</text>
<text x="776" y="418" fill="#242936">t</text>
<text x="839" y="418" fill="#242936">B</text>
<text x="848" y="418" fill="#242936">a</text>
<text x="857" y="418" fill="#242936">r</text>
<text x="38" y="436" fill="#242936">A</text>
<text x="47" y="436" fill="#242936">n</text>
<text x="56" y="436" fill="#242936">i</text>
<text x="65" y="436" fill="#242936">m</text>
<text x="74" y="436" fill="#242936">a</text>
<text x="83" y="436" fill="#242936">t</text>
<text x="92" y="436" fill="#242936">i</text>
<text x="101" y="436" fill="#242936">o</text>
<text x="110" y="436" fill="#242936">n</text>
<text x="128" y="436" fill="#242936">s</text>
<text x="137" y="436" fill="#242936">p</text>
<text x="146" y="436" fill="#242936">e</text>
<text x="155" y="436" fill="#242936">e</text>
<text x="164" y="436" fill="#242936">d</text>
<text x="254" y="436" fill="#242936">1</text>
<text x="263" y="436" fill="#242936">x</text>
<text x="20" y="472" fill="#242936" font-weight="bold">S</text>
<text x="29" y="472" fill="#242936" font-weight="bold">Y</text>
<text x="38" y="472" fill="#242936" font-weight="bold">M</text>
<text x="47" y="472" fill="#242936" font-weight="bold">B</text>
<text x="56" y="472" fill="#242936" font-weight="bold">O</text>
<text x="65" y="472" fill="#242936" font-weight="bold">L</text>
<text x="74" y="472" fill="#242936" font-weight="bold">S</text>
<text x="38" y="490" fill="#242936">S</text>
<text x="47" y="490" fill="#242936">y</text>
<text x="56" y="490" fill="#242936">m</text>
<text x="65" y="490" fill="#242936">b</text>
<text x="74" y="490" fill="#242936">o</text>
<text x="83" y="490" fill="#242936">l</text>
<text x="101" y="490" fill="#242936">s</text>
<text x="110" y="490" fill="#242936">e</text>
<text x="119" y="490" fill="#242936">t</text>
<text x="254" y="490" fill="#242936">C</text>
<text x="263" y="490" fill="#242936">i</text>
<text x="272" y="490" fill="#242936">r</text>
<text x="281" y="490" fill="#242936">c</text>
<text x="290" y="490" fill="#242936">l</text>
<text x="299" y="490" fill="#242936">e</text>
<text x="308" y="490" fill="#242936">s</text>
<text x="38" y="508" fill="#242936">I</text>
<text x="47" y="508" fill="#242936">d</text>
<text x="56" y="508" fill="#242936">l</text>
<text x="65" y="508" fill="#242936">e</text>
<text x="254" y="508" fill="#5fafff" font-weight="bold" font-family="DejaVu Sans,Noto Sans Symbols 2,monospace">○</text>
<text x="272" y="508" fill="#5fafff" font-weight="bold">W</text>
<text x="281" y="508" fill="#5fafff" font-weight="bold">e</text>
<text x="290" y="508" fill="#5fafff" font-weight="bold">b</text>
<text x="299" y="508" fill="#5fafff" font-weight="bold">s</text>
<text x="308" y="508" fill="#5fafff" font-weight="bold">i</text>
<text x="317" y="508" fill="#5fafff" font-weight="bold">t</text>
<text x="326" y="508" fill="#5fafff" font-weight="bold">e</text>
<text x="38" y="526" fill="#242936">W</text>
<text x="47" y="526" fill="#242936">o</text>
<text x="56" y="526" fill="#242936">r</text>
<text x="65" y="526" fill="#242936">k</text>
<text x="74" y="526" fill="#242936">i</text>
<text x="83" y="526" fill="#242936">n</text>
<text x="92" y="526" fill="#242936">g</text>
<text x="254" y="526" fill="#242936" font-family="DejaVu Sans,Noto Sans Symbols 2,monospace">●</text>
<text x="272" y="526" fill="#242936">W</text>
<text x="281" y="526" fill="#242936">e</text>
<text x="290" y="526" fill="#242936">b</text>
<text x="299" y="526" fill="#242936">s</text>
<text x="308" y="526" fill="#242936">i</text>
<text x="317" y="526" fill="#242936">t</text>
<text x="326" y="526" fill="#242936">e</text>
<text x="38" y="544" fill="#242936">D</text>
<text x="47" y="544" fill="#242936">o</text>
<text x="56" y="544" fill="#242936">n</text>
<text x="65" y="544" fill="#242936">e</text>
<text x="254" y="544" fill="#5fafff" font-weight="bold" font-family="DejaVu Sans,Noto Sans Symbols 2,monospace">●</text>
<text x="272" y="544" fill="#5fafff" font-weight="bold">W</text>
<text x="281" y="544" fill="#5fafff" font-weight="bold">e</text>
<text x="290" y="544" fill="#5fafff" font-weight="bold">b</text>
<text x="299" y="544" fill="#5fafff" font-weight="bold">s</text>
<text x="308" y="544" fill="#5fafff" font-weight="bold">i</text>
<text x="317" y="544" fill="#5fafff" font-weight="bold">t</text>
<text x="326" y="544" fill="#5fafff" font-weight="bold">e</text>
<text x="38" y="562" fill="#242936">B</text>
<text x="47" y="562" fill="#242936">l</text>
<text x="56" y="562" fill="#242936">o</text>
<text x="65" y="562" fill="#242936">c</text>
<text x="74" y="562" fill="#242936">k</text>
<text x="83" y="562" fill="#242936">e</text>
<text x="92" y="562" fill="#242936">d</text>
<text x="254" y="562" fill="#5fafff" font-weight="bold" font-family="DejaVu Sans,Noto Sans Symbols 2,monospace">⊘</text>
<text x="272" y="562" fill="#5fafff" font-weight="bold">W</text>
<text x="281" y="562" fill="#5fafff" font-weight="bold">e</text>
<text x="290" y="562" fill="#5fafff" font-weight="bold">b</text>
<text x="299" y="562" fill="#5fafff" font-weight="bold">s</text>
<text x="308" y="562" fill="#5fafff" font-weight="bold">i</text>
<text x="317" y="562" fill="#5fafff" font-weight="bold">t</text>
<text x="326" y="562" fill="#5fafff" font-weight="bold">e</text>
<text x="38" y="580" fill="#242936">U</text>
<text x="47" y="580" fill="#242936">n</text>
<text x="56" y="580" fill="#242936">k</text>
<text x="65" y="580" fill="#242936">n</text>
<text x="74" y="580" fill="#242936">o</text>
<text x="83" y="580" fill="#242936">w</text>
<text x="92" y="580" fill="#242936">n</text>
<text x="254" y="580" fill="#5fafff" font-weight="bold" font-family="DejaVu Sans,Noto Sans Symbols 2,monospace">·</text>
<text x="272" y="580" fill="#5fafff" font-weight="bold">W</text>
<text x="281" y="580" fill="#5fafff" font-weight="bold">e</text>
<text x="290" y="580" fill="#5fafff" font-weight="bold">b</text>
<text x="299" y="580" fill="#5fafff" font-weight="bold">s</text>
<text x="308" y="580" fill="#5fafff" font-weight="bold">i</text>
<text x="317" y="580" fill="#5fafff" font-weight="bold">t</text>
<text x="326" y="580" fill="#5fafff" font-weight="bold">e</text>
<text x="20" y="652" fill="#242936" font-family="DejaVu Sans,Noto Sans Symbols 2,monospace">←</text>
<text x="29" y="652" fill="#242936" font-family="DejaVu Sans,Noto Sans Symbols 2,monospace">→</text>
<text x="47" y="652" fill="#242936">c</text>
<text x="56" y="652" fill="#242936">h</text>
<text x="65" y="652" fill="#242936">a</text>
<text x="74" y="652" fill="#242936">n</text>
<text x="83" y="652" fill="#242936">g</text>
<text x="92" y="652" fill="#242936">e</text>
<text x="110" y="652" fill="#242936" font-family="DejaVu Sans,Noto Sans Symbols 2,monospace">·</text>
<text x="128" y="652" fill="#242936" font-family="DejaVu Sans,Noto Sans Symbols 2,monospace">↵</text>
<text x="146" y="652" fill="#242936">e</text>
<text x="155" y="652" fill="#242936">d</text>
<text x="164" y="652" fill="#242936">i</text>
<text x="173" y="652" fill="#242936">t</text>
<text x="191" y="652" fill="#242936" font-family="DejaVu Sans,Noto Sans Symbols 2,monospace">·</text>
<text x="209" y="652" fill="#242936">T</text>
<text x="218" y="652" fill="#242936">a</text>
<text x="227" y="652" fill="#242936">b</text>
<text x="245" y="652" fill="#242936">p</text>
<text x="254" y="652" fill="#242936">a</text>
<text x="263" y="652" fill="#242936">g</text>
<text x="272" y="652" fill="#242936">e</text>
<text x="290" y="652" fill="#242936" font-family="DejaVu Sans,Noto Sans Symbols 2,monospace">·</text>
<text x="308" y="652" fill="#242936" font-weight="bold">A</text>
<text x="326" y="652" fill="#242936" font-weight="bold">a</text>
<text x="335" y="652" fill="#242936" font-weight="bold">p</text>
<text x="344" y="652" fill="#242936" font-weight="bold">p</text>
<text x="353" y="652" fill="#242936" font-weight="bold">l</text>
<text x="362" y="652" fill="#242936" font-weight="bold">y</text>
<text x="380" y="652" fill="#242936" font-family="DejaVu Sans,Noto Sans Symbols 2,monospace">·</text>
<text x="398" y="652" fill="#242936" font-weight="bold">U</text>
<text x="416" y="652" fill="#242936" font-weight="bold">u</text>
<text x="425" y="652" fill="#242936" font-weight="bold">n</text>
<text x="434" y="652" fill="#242936" font-weight="bold">d</text>
<text x="443" y="652" fill="#242936" font-weight="bold">o</text>
<text x="461" y="652" fill="#242936" font-weight="bold">a</text>
<text x="470" y="652" fill="#242936" font-weight="bold">l</text>
<text x="479" y="652" fill="#242936" font-weight="bold">l</text>
<text x="497" y="652" fill="#242936" font-family="DejaVu Sans,Noto Sans Symbols 2,monospace">·</text>
<text x="515" y="652" fill="#242936" font-weight="bold">D</text>
<text x="533" y="652" fill="#242936" font-weight="bold">d</text>
<text x="542" y="652" fill="#242936" font-weight="bold">e</text>
<text x="551" y="652" fill="#242936" font-weight="bold">f</text>
<text x="560" y="652" fill="#242936" font-weight="bold">a</text>
<text x="569" y="652" fill="#242936" font-weight="bold">u</text>
<text x="578" y="652" fill="#242936" font-weight="bold">l</text>
<text x="587" y="652" fill="#242936" font-weight="bold">t</text>
<text x="596" y="652" fill="#242936" font-weight="bold">s</text>
<text x="614" y="652" fill="#242936" font-family="DejaVu Sans,Noto Sans Symbols 2,monospace">·</text>
<text x="632" y="652" fill="#242936" font-weight="bold">Q</text>
<text x="650" y="652" fill="#242936" font-weight="bold">c</text>
<text x="659" y="652" fill="#242936" font-weight="bold">l</text>
<text x="668" y="652" fill="#242936" font-weight="bold">o</text>
<text x="677" y="652" fill="#242936" font-weight="bold">s</text>
<text x="686" y="652" fill="#242936" font-weight="bold">e</text>
</g></svg>
